# xmcd
#
# Track frame offsets:
# 150
# 18997
# 43524
# 60851
# 89108
# 109300
# 136315
# 157349
# 181091
# 204815
# 225750
# 247380
# 268047
#
# Disc length: 3840 seconds
#
# Revision: 0
# Processed by: cddbd v1.5PL3 Copyright (c) Steve Scherf et al.
# Submitted via: Audion 3.0.2 (http://www.panic.com/audion/)
#
DISCID=ac0efe0d
DTITLE=litfiba - litfiba
DYEAR=1900
DGENRE=
TTITLE0=x
TTITLE1=xx
TTITLE2=x
TTITLE3=x
TTITLE4=x
TTITLE5=x
TTITLE6=x
TTITLE7=x
TTITLE8=x
TTITLE9=x
TTITLE10=x
TTITLE11=x
TTITLE12=x
EXTD=
EXTT0=
EXTT1=
EXTT2=
EXTT3=
EXTT4=
EXTT5=
EXTT6=
EXTT7=
EXTT8=
EXTT9=
EXTT10=
EXTT11=
EXTT12=
PLAYORDER=
